<?xml version="1.0" encoding="UTF-8"?>
<svg id="Layer_2" data-name="Layer 2" xmlns="http://www.w3.org/2000/svg" viewBox="0 0 371.05 322.63">
  <defs>
    <style>
      .cls-1 {
        fill: #c88d5e;
        fill-rule: evenodd;
      }
    </style>
  </defs>
  <g id="Layer_1-2" data-name="Layer 1">
    <g>
      <path class="cls-1" d="m284.45,301.01c-77.1,44.52-175.85,18.06-220.36-59.04C19.58,164.87,46.03,66.12,123.14,21.61c77.1-44.5,175.85-18.05,220.35,59.05.71,1.21,6.87,11.84,7.14,14.32l-59.82,34.29.03.09-144.05,83.41s-6.41-52.3,28.59-78.59c19.35-14.54,56.19-35.63,78.53-48.03-28.19-20.13-66.27-25.18-97.08-7.4-42.92,24.78-61.44,86.04-36.66,128.97,24.78,42.9,88.39,63.43,131.3,38.65,13.94-8.04,39.58-27.25,50.95-56.42,15.67-40.18,30.72-52.56,66.72-67.1,10.79,64.48-24.76,143.58-84.68,178.17"/>
      <path class="cls-1" d="m33.84,216.04c3.51,11.83,8.44,23.44,14.88,34.58,2.81,4.86,5.83,9.52,9.06,13.97L.44,297.8s-6.27-52.08,28.73-78.35c1.47-1.1,3.02-2.24,4.67-3.4"/>
    </g>
  </g>
</svg>