<?xml version="1.0" encoding="UTF-8"?>
<svg xmlns="http://www.w3.org/2000/svg" viewBox="0 0 451.79 130.73">
  <path fill="#ffffff" d="m44.54,128.85L0,1.71h28.93l20.31,61.35c2.45,7.74,4.92,16.26,7.42,25.56,2.5,9.3,5.15,19.47,7.94,30.51h-5.63c2.73-11.15,5.29-21.35,7.68-30.59,2.39-9.24,4.75-17.73,7.08-25.47L93.35,1.71h28.76l-43.52,127.15h-34.05Z"/>
  <path fill="#ffffff" d="m296.68,130.73c-10.18,0-19.04-1.56-26.58-4.69-7.54-3.13-13.41-7.77-17.62-13.91-4.21-6.14-6.43-13.71-6.66-22.7h25.34c.34,4.27,1.62,7.84,3.84,10.71,2.22,2.87,5.18,5.02,8.87,6.44,3.7,1.42,7.88,2.13,12.54,2.13s8.72-.67,12.16-2.01c3.44-1.34,6.13-3.23,8.06-5.67,1.93-2.44,2.9-5.29,2.9-8.53,0-2.9-.87-5.33-2.6-7.3-1.74-1.96-4.22-3.65-7.47-5.08-3.24-1.42-7.2-2.67-11.86-3.75l-13.99-3.5c-10.75-2.62-19.17-6.73-25.26-12.33-6.09-5.6-9.13-13.01-9.13-22.23,0-7.68,2.06-14.39,6.19-20.14,4.12-5.75,9.78-10.21,16.98-13.4,7.2-3.18,15.4-4.78,24.62-4.78s17.58,1.61,24.58,4.82c7,3.21,12.46,7.68,16.38,13.4,3.93,5.72,5.94,12.3,6.06,19.75h-25.17c-.46-5.12-2.63-9.07-6.53-11.86-3.9-2.79-9.09-4.18-15.57-4.18-4.38,0-8.14.63-11.26,1.88-3.13,1.25-5.5,2.99-7.13,5.21-1.62,2.22-2.43,4.75-2.43,7.59,0,3.13.94,5.73,2.82,7.81,1.88,2.08,4.38,3.75,7.51,5.03,3.13,1.28,6.46,2.35,9.98,3.2l11.52,2.82c5.35,1.19,10.33,2.82,14.93,4.86,4.61,2.05,8.65,4.56,12.12,7.55,3.47,2.99,6.16,6.53,8.06,10.62,1.91,4.1,2.86,8.82,2.86,14.16,0,7.68-1.93,14.38-5.8,20.1-3.87,5.72-9.47,10.14-16.81,13.27-7.34,3.13-16.16,4.69-26.45,4.69"/>
  <path fill="#ffffff" d="m402.72,130.73c-10.18,0-19.04-1.56-26.58-4.69-7.54-3.13-13.41-7.77-17.62-13.91-4.21-6.14-6.43-13.71-6.66-22.7h25.34c.34,4.27,1.62,7.84,3.84,10.71,2.22,2.87,5.18,5.02,8.87,6.44,3.7,1.42,7.88,2.13,12.54,2.13s8.72-.67,12.16-2.01c3.44-1.34,6.13-3.23,8.06-5.67,1.93-2.44,2.9-5.29,2.9-8.53,0-2.9-.87-5.33-2.6-7.3-1.74-1.96-4.22-3.65-7.47-5.08-3.24-1.42-7.2-2.67-11.86-3.75l-13.99-3.5c-10.75-2.62-19.17-6.73-25.26-12.33-6.09-5.6-9.13-13.01-9.13-22.23,0-7.68,2.06-14.39,6.19-20.14,4.12-5.75,9.78-10.21,16.98-13.4,7.2-3.18,15.4-4.78,24.62-4.78s17.58,1.61,24.58,4.82c7,3.21,12.46,7.68,16.38,13.4,3.93,5.72,5.94,12.3,6.06,19.75h-25.17c-.46-5.12-2.63-9.07-6.53-11.86-3.9-2.79-9.09-4.18-15.57-4.18-4.38,0-8.14.63-11.26,1.88-3.13,1.25-5.5,2.99-7.13,5.21-1.62,2.22-2.43,4.75-2.43,7.59,0,3.13.94,5.73,2.82,7.81,1.88,2.08,4.38,3.75,7.51,5.03,3.13,1.28,6.46,2.35,9.98,3.2l11.52,2.82c5.35,1.19,10.32,2.82,14.93,4.86,4.61,2.05,8.65,4.56,12.12,7.55,3.47,2.99,6.16,6.53,8.06,10.62,1.91,4.1,2.86,8.82,2.86,14.16,0,7.68-1.93,14.38-5.8,20.1-3.87,5.72-9.47,10.14-16.81,13.27-7.34,3.13-16.16,4.69-26.45,4.69"/>
  <path fill="#C4935A" fill-rule="evenodd" d="m211.75,120.85c-29.43,16.99-67.12,6.89-84.11-22.53-16.99-29.43-6.89-67.12,22.54-84.11,29.43-16.98,67.12-6.89,84.1,22.54.27.46,2.62,4.52,2.72,5.46l-22.83,13.09v.04s-54.97,31.83-54.97,31.83c0,0-2.45-19.96,10.91-30,7.39-5.55,21.44-13.6,29.97-18.33-10.76-7.68-25.29-9.61-37.05-2.83-16.38,9.46-23.45,32.84-13.99,49.22,9.46,16.37,33.74,24.21,50.11,14.75,5.32-3.07,15.11-10.4,19.44-21.53,5.98-15.33,11.72-20.06,25.47-25.61,4.12,24.61-9.45,54.8-32.32,68"/>
  <path fill="#C4935A" fill-rule="evenodd" d="m116.1,88.42c1.34,4.52,3.22,8.95,5.68,13.2,1.07,1.86,2.23,3.63,3.46,5.33l-21.88,12.67s-2.39-19.88,10.97-29.9c.56-.42,1.15-.85,1.78-1.3"/>
</svg>
